<svg xmlns="http://www.w3.org/2000/svg" viewBox="0 0 1133 568" role="img" aria-label="Avion logo" fill="#0a0a0a">
  <path fill="#0a0a0a" fill-rule="evenodd" d="M 1077 63 L 1074 58 L 1066 54 L 1061 54 L 1050 59 L 900 149 L 791 210 L 789 210 L 759 181 L 733 161 L 694 138 L 665 126 L 639 119 L 618 116 L 578 117 L 559 121 L 545 126 L 516 142 L 489 166 L 467 192 L 416 262 L 391 250 L 363 240 L 335 235 L 313 235 L 289 239 L 266 247 L 247 257 L 231 268 L 202 294 L 166 337 L 64 477 L 54 493 L 54 503 L 61 512 L 74 513 L 176 488 L 281 457 L 378 424 L 465 391 L 581 344 L 647 315 L 651 321 L 671 368 L 691 407 L 710 436 L 719 447 L 737 463 L 736 465 L 721 463 L 708 459 L 673 442 L 639 420 L 561 364 L 526 379 L 623 449 L 652 468 L 684 485 L 712 495 L 739 499 L 763 497 L 788 489 L 807 478 L 823 465 L 849 434 L 1076 77 L 1078 72 Z M 395 290 L 368 323 L 334 358 L 300 387 L 270 408 L 246 422 L 202 442 L 143 461 L 115 468 L 113 467 L 167 391 L 208 339 L 243 303 L 267 285 L 283 277 L 302 271 L 315 269 L 334 269 L 348 271 L 372 278 L 392 287 Z M 780 252 L 784 254 L 797 273 L 814 306 L 823 335 L 827 362 L 826 389 L 819 414 L 807 433 L 798 441 L 787 446 L 775 446 L 764 442 L 748 430 L 738 419 L 714 382 L 678 304 L 680 300 L 727 279 Z M 587 198 L 611 235 L 633 280 L 634 284 L 632 286 L 551 321 L 464 356 L 336 403 L 333 402 L 352 386 L 383 355 L 424 306 L 475 339 L 511 324 L 446 281 L 445 279 L 495 209 L 511 190 L 525 177 L 540 170 L 550 170 L 557 172 L 571 181 Z M 585 150 L 604 148 L 631 151 L 644 154 L 674 165 L 697 177 L 723 194 L 745 212 L 758 226 L 692 259 L 664 271 L 643 226 L 626 197 L 604 168 Z M 1007 123 L 1008 125 L 941 228 L 865 350 L 859 357 L 855 329 L 846 299 L 832 269 L 811 237 L 876 201 Z"/>
</svg>
