<svg xmlns="http://www.w3.org/2000/svg" viewBox="0 0 998 781" role="img" aria-label="Avion logo with wordmark" fill="#0a0a0a">
  <path fill="#0a0a0a" fill-rule="evenodd" d="M 844 690 L 844 732 L 852 731 L 853 705 L 866 720 L 879 704 L 880 732 L 887 732 L 887 690 L 880 690 L 866 708 L 852 690 Z M 795 690 L 794 731 L 823 732 L 823 725 L 804 725 L 802 723 L 802 716 L 804 714 L 819 714 L 819 707 L 803 707 L 802 699 L 804 697 L 822 697 L 822 690 Z M 742 690 L 742 697 L 754 698 L 754 731 L 762 732 L 762 698 L 775 697 L 775 690 Z M 642 690 L 658 715 L 658 732 L 665 732 L 666 714 L 681 690 L 672 690 L 662 706 L 651 690 Z M 517 690 L 516 732 L 536 732 L 544 729 L 550 723 L 553 716 L 553 706 L 548 696 L 535 690 Z M 525 697 L 537 698 L 545 707 L 545 715 L 543 719 L 535 725 L 524 724 Z M 467 690 L 467 732 L 495 732 L 495 725 L 475 724 L 476 714 L 491 714 L 491 707 L 476 707 L 475 698 L 495 697 L 495 690 Z M 415 690 L 415 732 L 422 732 L 424 716 L 428 716 L 431 719 L 438 732 L 447 732 L 437 715 L 442 712 L 445 707 L 444 696 L 440 692 L 434 690 Z M 423 698 L 433 697 L 437 700 L 437 705 L 432 709 L 424 709 L 422 706 Z M 365 690 L 365 732 L 393 732 L 394 725 L 373 724 L 374 714 L 390 713 L 389 707 L 374 707 L 373 698 L 393 697 L 393 690 Z M 316 690 L 315 731 L 344 732 L 344 725 L 325 725 L 323 723 L 323 716 L 325 714 L 340 714 L 340 707 L 324 707 L 323 699 L 325 697 L 343 697 L 344 691 Z M 255 690 L 255 732 L 263 731 L 264 705 L 285 732 L 292 732 L 292 690 L 285 690 L 284 717 L 262 690 Z M 223 690 L 223 732 L 230 732 L 231 691 Z M 103 690 L 103 732 L 111 732 L 112 705 L 133 732 L 140 732 L 141 691 L 133 690 L 132 717 L 111 690 Z M 54 690 L 53 731 L 82 732 L 82 725 L 63 725 L 61 723 L 61 716 L 63 714 L 78 714 L 78 707 L 62 707 L 61 699 L 63 697 L 81 697 L 81 690 Z M 922 689 L 912 693 L 908 702 L 913 711 L 927 716 L 930 719 L 930 722 L 925 726 L 921 726 L 912 721 L 907 727 L 916 732 L 926 733 L 937 727 L 938 716 L 933 710 L 919 705 L 917 703 L 917 699 L 925 696 L 932 700 L 937 694 L 930 690 Z M 710 689 L 705 690 L 698 695 L 696 705 L 701 711 L 715 716 L 718 722 L 715 725 L 709 726 L 700 721 L 695 727 L 703 732 L 713 733 L 721 730 L 725 726 L 726 717 L 721 710 L 711 707 L 705 703 L 705 699 L 709 696 L 716 697 L 720 700 L 724 695 L 724 693 L 718 690 Z M 613 689 L 604 691 L 598 698 L 598 706 L 601 710 L 619 718 L 619 723 L 617 725 L 610 726 L 601 721 L 596 727 L 609 733 L 623 730 L 628 722 L 627 715 L 624 711 L 612 707 L 606 702 L 606 700 L 611 696 L 622 699 L 626 695 L 622 691 Z M 181 689 L 170 693 L 164 699 L 161 706 L 161 716 L 163 722 L 168 728 L 176 732 L 185 733 L 193 731 L 201 726 L 201 709 L 185 709 L 184 715 L 192 716 L 193 722 L 185 726 L 176 724 L 171 719 L 169 714 L 171 703 L 179 697 L 188 697 L 194 701 L 199 697 L 199 695 L 195 692 Z M 779 497 L 779 644 L 810 643 L 810 541 L 908 644 L 939 643 L 939 497 L 908 497 L 907 598 L 811 497 Z M 455 497 L 455 643 L 486 644 L 486 497 Z M 222 497 L 299 644 L 333 644 L 410 498 L 376 497 L 316 610 L 258 498 Z M 119 497 L 48 644 L 80 644 L 95 616 L 177 616 L 191 644 L 223 644 L 224 643 L 154 498 Z M 136 530 L 164 586 L 163 588 L 108 587 Z M 574 511 L 564 520 L 555 532 L 548 548 L 545 566 L 546 584 L 550 599 L 559 615 L 570 627 L 583 636 L 604 644 L 627 647 L 654 646 L 669 643 L 686 636 L 700 626 L 710 615 L 721 592 L 723 581 L 723 560 L 720 546 L 713 531 L 704 519 L 696 512 L 675 500 L 646 494 L 624 494 L 604 497 L 592 501 Z M 584 544 L 598 531 L 616 524 L 647 523 L 663 527 L 675 534 L 683 542 L 689 552 L 692 563 L 692 579 L 689 589 L 684 598 L 674 608 L 658 616 L 648 618 L 621 618 L 605 614 L 596 609 L 587 601 L 578 584 L 577 562 Z M 949 55 L 944 49 L 932 49 L 803 127 L 710 179 L 672 145 L 647 129 L 627 119 L 589 107 L 567 104 L 548 104 L 527 107 L 510 112 L 489 122 L 477 130 L 450 156 L 399 223 L 366 206 L 335 197 L 299 196 L 267 205 L 250 214 L 233 226 L 195 265 L 157 314 L 89 408 L 86 415 L 87 421 L 94 428 L 103 428 L 182 410 L 292 379 L 432 331 L 517 297 L 585 267 L 589 268 L 605 307 L 626 348 L 638 366 L 663 392 L 662 393 L 642 389 L 609 374 L 565 346 L 515 309 L 486 321 L 576 385 L 618 408 L 638 415 L 659 419 L 686 418 L 709 411 L 735 394 L 760 365 L 949 64 Z M 382 245 L 348 283 L 326 304 L 303 323 L 274 343 L 236 363 L 209 374 L 165 387 L 137 393 L 135 392 L 180 328 L 217 281 L 245 252 L 268 235 L 282 228 L 295 224 L 323 222 L 352 229 L 379 242 Z M 702 212 L 719 237 L 732 264 L 740 293 L 741 326 L 735 349 L 725 366 L 712 377 L 706 379 L 694 379 L 677 370 L 663 356 L 654 344 L 630 300 L 612 256 Z M 541 173 L 562 207 L 577 240 L 575 243 L 435 302 L 367 327 L 326 340 L 324 339 L 347 320 L 379 288 L 404 258 L 443 286 L 473 274 L 423 239 L 421 236 L 466 177 L 492 151 L 498 148 L 513 149 L 525 156 Z M 536 132 L 544 130 L 567 130 L 587 133 L 612 141 L 649 161 L 671 178 L 684 192 L 601 231 L 580 187 L 570 170 L 557 152 Z M 891 105 L 891 108 L 768 303 L 763 275 L 755 251 L 745 230 L 726 200 L 799 160 Z"/>
</svg>
